<?xml version="1.0" encoding="UTF-8" standalone="no"?>
<svg
   xmlns:sketch="http://www.bohemiancoding.com/sketch/ns"
   xmlns:dc="http://purl.org/dc/elements/1.1/"
   xmlns:cc="http://creativecommons.org/ns#"
   xmlns:rdf="http://www.w3.org/1999/02/22-rdf-syntax-ns#"
   xmlns:svg="http://www.w3.org/2000/svg"
   xmlns="http://www.w3.org/2000/svg"
   xmlns:sodipodi="http://sodipodi.sourceforge.net/DTD/sodipodi-0.dtd"
   xmlns:inkscape="http://www.inkscape.org/namespaces/inkscape"
   width="64"
   height="64"
   viewBox="0 0 64 64"
   version="1.1"
   id="svg36"
   sodipodi:docname="icon-off.svg"
   inkscape:version="1.0.1 (3bc2e813f5, 2020-09-07)">
  <metadata
     id="metadata40">
    <rdf:RDF>
      <cc:Work
         rdf:about="">
        <dc:format>image/svg+xml</dc:format>
        <dc:type
           rdf:resource="http://purl.org/dc/dcmitype/StillImage" />
        <dc:title>Speaker</dc:title>
      </cc:Work>
    </rdf:RDF>
  </metadata>
  <sodipodi:namedview
     pagecolor="#000000"
     bordercolor="#666666"
     borderopacity="1"
     objecttolerance="10"
     gridtolerance="10"
     guidetolerance="10"
     inkscape:pageopacity="0"
     inkscape:pageshadow="2"
     inkscape:window-width="2560"
     inkscape:window-height="1377"
     id="namedview38"
     showgrid="false"
     inkscape:pagecheckerboard="true"
     inkscape:zoom="15.75"
     inkscape:cx="21"
     inkscape:cy="32.253969"
     inkscape:window-x="1192"
     inkscape:window-y="302"
     inkscape:window-maximized="1"
     inkscape:current-layer="Page-1"
     inkscape:document-rotation="0" />
  <!-- Generator: Sketch 3.5.1 (25234) - http://www.bohemiancoding.com/sketch -->
  <title
     id="title26">Speaker</title>
  <desc
     id="desc28">Created with Sketch.</desc>
  <defs
     id="defs30" />
  <g
     id="Page-1"
     stroke="none"
     stroke-width="1"
     fill="none"
     fill-rule="evenodd"
     sketch:type="MSPage">
    <path
       d="m 46,6 c -0.552,0 -1,0.448 -1,1 0,0.552 0.448,1 1,1 0.552,0 1,-0.448 1,-1 0,-0.552 -0.448,-1 -1,-1 z m 0.5,53 h -29 c -0.276,0 -0.5,0.224 -0.5,0.5 0,0.276 0.224,0.5 0.5,0.5 h 29 C 46.776,60 47,59.776 47,59.5 47,59.224 46.776,59 46.5,59 Z M 32,46 c -2.757,0 -5,-2.243 -5,-5 0,-2.757 2.243,-5 5,-5 2.757,0 5,2.243 5,5 0,2.757 -2.243,5 -5,5 z m 0,-11 c -3.314,0 -6,2.686 -6,6 0,3.314 2.686,6 6,6 3.314,0 6,-2.686 6,-6 0,-3.314 -2.686,-6 -6,-6 z m 0,-22 c 1.103,0 2,0.897 2,2 0,1.103 -0.897,2 -2,2 -1.103,0 -2,-0.897 -2,-2 0,-1.103 0.897,-2 2,-2 z m 0,5 c 1.657,0 3,-1.343 3,-3 0,-1.657 -1.343,-3 -3,-3 -1.657,0 -3,1.343 -3,3 0,1.657 1.343,3 3,3 z m 0,36 c -7.168,0 -13,-5.832 -13,-13 0,-7.168 5.832,-13 13,-13 7.168,0 13,5.832 13,13 0,7.168 -5.832,13 -13,13 z m 0,-28 c -8.284,0 -15,6.716 -15,15 0,8.284 6.716,15 15,15 8.284,0 15,-6.716 15,-15 C 47,32.716 40.284,26 32,26 Z M 32,8 c 3.86,0 7,3.14 7,7 0,3.86 -3.14,7 -7,7 -3.86,0 -7,-3.14 -7,-7 0,-3.86 3.14,-7 7,-7 z m 0,16 c 4.971,0 9,-4.029 9,-9 0,-4.971 -4.029,-9 -9,-9 -4.971,0 -9,4.029 -9,9 0,4.971 4.029,9 9,9 z m 19,35 c 0,1.654 -1.346,3 -3,3 H 16 c -1.654,0 -3,-1.346 -3,-3 V 5 c 0,-1.654 1.346,-3 3,-3 h 32 c 1.654,0 3,1.346 3,3 z M 48,0 H 16 c -2.75,0 -5,2.25 -5,5 v 54 c 0,2.75 2.25,5 5,5 h 32 c 2.75,0 5,-2.25 5,-5 V 5 C 53,2.25 50.75,0 48,0 Z"
       sketch:type="MSShapeGroup"
       id="path32"
       style="fill:#ffffff;fill-opacity:1" />
    <text
       xml:space="preserve"
       style="font-style:normal;font-weight:normal;font-size:90.1713px;line-height:1.25;font-family:sans-serif;fill:#ff0000;fill-opacity:1;stroke:none;stroke-width:2.25428"
       x="32.646301"
       y="67.088173"
       id="text868"><tspan
         sodipodi:role="line"
         id="tspan866"
         x="32.646301"
         y="67.088173"
         style="stroke-width:2.25428">˟</tspan></text>
  </g>
</svg>
